<svg xmlns="http://www.w3.org/2000/svg" fill="none" viewBox="0 0 57 38">
  <defs/>
  <g clip-path="url(#clip0)">
    <path stroke="#333" stroke-linecap="round" stroke-linejoin="round" stroke-width="2" d="M36.5 12.8C36.5 5 33 1 28.3 1 23.5 1 20 4.9 20 12.8h16.5zM42.3 36.5l2.6-12.2 2.4-11.5h-38L14 36.5h28.3z"/>
    <path fill="#333" d="M22.8 23.3a2 2 0 100-4 2 2 0 000 4zM33.8 23.3a2 2 0 100-4 2 2 0 000 4z"/>
    <path stroke="#333" stroke-linecap="round" stroke-linejoin="round" stroke-width="2" d="M28.3 30.8c2 0 3.5-.9 3.5-2s-1.6-2-3.5-2c-2 0-3.5.9-3.5 2s1.6 2 3.5 2zM12 26.5L1.5 21M44.5 26.5L55 21"/>
  </g>
  <defs>
    <clipPath id="clip0">
      <path fill="#fff" d="M0 0h56v38H0z" transform="translate(.5)"/>
    </clipPath>
  </defs>
</svg>
